<?xml version="1.0" encoding="UTF-8"?>
<svg xmlns="http://www.w3.org/2000/svg" xmlns:xlink="http://www.w3.org/1999/xlink" viewBox="0 0 24 24" width="24px" height="24px">
<g id="surface6561003">
<path style=" stroke:none;fill-rule:nonzero;fill:rgb(100%,100%,100%);fill-opacity:1;" d="M 4 3 C 2.898438 3 2 3.898438 2 5 L 2 17 L 5 14 L 14 14 C 15.101562 14 16 13.101562 16 12 L 16 5 C 16 3.898438 15.101562 3 14 3 Z M 18 8 L 18 12 C 18 14.207031 16.207031 16 14 16 L 8 16 L 8 17 C 8 18.101562 8.898438 19 10 19 L 19 19 L 22 22 L 22 10 C 22 8.898438 21.101562 8 20 8 Z M 18 8 "/>
</g>
</svg>
