<?xml version="1.0" encoding="UTF-8"?>
<svg xmlns="http://www.w3.org/2000/svg" xmlns:xlink="http://www.w3.org/1999/xlink" viewBox="0 0 24 24" width="24px" height="24px">
<g id="surface6559664">
<path style=" stroke:none;fill-rule:nonzero;fill:rgb(100%,100%,100%);fill-opacity:1;" d="M 20.867188 7.796875 L 20.476562 5.921875 L 17.570312 9 L 15 9 L 15 6.429688 L 18.078125 3.507812 L 16.199219 3.121094 C 15.808594 3.039062 15.402344 3 15 3 C 11.691406 3 9 5.71875 9 9.054688 C 9 9.476562 9.050781 9.902344 9.152344 10.339844 L 2.9375 16.445312 C 1.6875 17.714844 1.6875 19.777344 2.941406 21.046875 C 3.550781 21.660156 4.363281 22 5.230469 22 C 6.097656 22 6.910156 21.660156 7.511719 21.054688 L 13.738281 14.933594 C 14.167969 15 14.585938 15 15 15 C 18.363281 15 21 12.390625 21 9.054688 C 21 8.632812 20.957031 8.210938 20.867188 7.796875 Z M 20.867188 7.796875 "/>
</g>
</svg>
