<?xml version="1.0" encoding="UTF-8"?>
<svg xmlns="http://www.w3.org/2000/svg" xmlns:xlink="http://www.w3.org/1999/xlink" viewBox="0 0 24 24" width="24px" height="24px">
<g id="surface6575210">
<path style=" stroke:none;fill-rule:nonzero;fill:rgb(100%,100%,100%);fill-opacity:1;" d="M 9 3 L 9 4 L 4 4 C 2.894531 4 2 4.894531 2 6 L 2 12 C 2 13.101562 2.898438 14 4 14 L 20 14 C 21.101562 14 22 13.101562 22 12 L 22 6 C 22 4.894531 21.105469 4 20 4 L 15 4 L 15 3 Z M 12 10 C 12.550781 10 13 10.449219 13 11 C 13 11.550781 12.550781 12 12 12 C 11.449219 12 11 11.550781 11 11 C 11 10.449219 11.449219 10 12 10 Z M 2 15.441406 L 2 18 C 2 19.105469 2.894531 20 4 20 L 20 20 C 21.105469 20 22 19.105469 22 18 L 22 15.441406 C 21.410156 15.789062 20.730469 16 20 16 L 4 16 C 3.269531 16 2.589844 15.789062 2 15.441406 Z M 2 15.441406 "/>
</g>
</svg>
